<svg xmlns="http://www.w3.org/2000/svg" width="16" height="14"><path fill="#1f373d" d="M15.714 2.35a6.438 6.438 0 01-1.864.512 3.255 3.255 0 001.427-1.798 6.516 6.516 0 01-2.062.79A3.248 3.248 0 007.68 4.816 9.216 9.216 0 01.984 1.422 3.253 3.253 0 001.99 5.76a3.259 3.259 0 01-1.472-.407v.041A3.253 3.253 0 003.124 8.58a3.266 3.266 0 01-1.467.055A3.25 3.25 0 004.69 10.89a6.515 6.515 0 01-4.808 1.344 9.208 9.208 0 004.98 1.46c5.975 0 9.242-4.95 9.242-9.243 0-.14-.002-.281-.01-.421a6.564 6.564 0 001.62-1.68z"/></svg>